<svg width="20" height="22" viewBox="0 0 20 22" fill="none" xmlns="http://www.w3.org/2000/svg">
<path d="M17.2829 18.9849H15.2829V19.4849C15.2829 19.6175 15.3356 19.7447 15.4294 19.8384C15.5231 19.9322 15.6503 19.9849 15.7829 19.9849H16.7829C16.9147 19.9823 17.0404 19.9288 17.1336 19.8356C17.2269 19.7424 17.2804 19.6167 17.2829 19.4849V18.9849ZM18.2829 12.9849V19.4849C18.2803 19.8819 18.1214 20.2619 17.8407 20.5426C17.56 20.8234 17.1799 20.9823 16.7829 20.9849H15.7829C15.3851 20.9849 15.0036 20.8268 14.7223 20.5455C14.441 20.2642 14.2829 19.8827 14.2829 19.4849V18.9849H6.28293V19.4849C6.28294 19.881 6.12628 20.261 5.84713 20.542C5.56798 20.823 5.18902 20.9822 4.79293 20.9849H3.79293C3.61829 20.9825 3.44552 20.9487 3.28293 20.8849L4.12293 19.9849H4.79293C4.92474 19.9823 5.05043 19.9288 5.14365 19.8356C5.23687 19.7424 5.29037 19.6167 5.29293 19.4849V18.9849H5.03293L5.95293 17.9849H17.2829V12.9849H10.5429L11.4629 11.9849H16.7329C16.7999 11.9836 16.866 11.9691 16.9274 11.9423C16.9887 11.9154 17.0442 11.8768 17.0907 11.8285C17.1371 11.7802 17.1735 11.7232 17.198 11.6608C17.2224 11.5984 17.2343 11.5319 17.2329 11.4649L17.0429 5.88488L18.0429 4.88488C18.0929 6.22488 18.1729 8.54488 18.1729 8.54488C18.2729 10.3749 18.3329 11.5449 18.3329 12.0049L18.2829 12.9849ZM15.2829 15.4749C15.2829 15.3423 15.2303 15.2151 15.1365 15.1213C15.0427 15.0276 14.9155 14.9749 14.7829 14.9749C14.6503 14.9749 14.5231 15.0276 14.4294 15.1213C14.3356 15.2151 14.2829 15.3423 14.2829 15.4749C14.2829 15.6075 14.3356 15.7347 14.4294 15.8284C14.5231 15.9222 14.6503 15.9749 14.7829 15.9749C14.8499 15.9736 14.916 15.9591 14.9774 15.9323C15.0387 15.9054 15.0942 15.8668 15.1407 15.8185C15.1871 15.7702 15.2235 15.7132 15.248 15.6508C15.2724 15.5884 15.2843 15.5219 15.2829 15.4549V15.4749ZM13.2829 15.4749C13.2829 15.1782 13.3709 14.8882 13.5357 14.6415C13.7005 14.3949 13.9348 14.2026 14.2089 14.0891C14.483 13.9755 14.7846 13.9458 15.0756 14.0037C15.3665 14.0616 15.6338 14.2044 15.8436 14.4142C16.0534 14.624 16.1962 14.8913 16.2541 15.1822C16.312 15.4732 16.2823 15.7748 16.1687 16.0489C16.0552 16.323 15.863 16.5573 15.6163 16.7221C15.3696 16.8869 15.0796 16.9749 14.7829 16.9749C14.5843 16.9749 14.3876 16.9354 14.2042 16.8588C14.0209 16.7822 13.8547 16.6699 13.7151 16.5285C13.5756 16.3871 13.4655 16.2194 13.3913 16.0351C13.3171 15.8507 13.2803 15.6535 13.2829 15.4549V15.4749ZM18.7929 4.98488V6.98488C18.7929 7.11749 18.8456 7.24467 18.9394 7.33844C19.0331 7.4322 19.1603 7.48488 19.2929 7.48488C19.4247 7.48232 19.5504 7.42882 19.6436 7.3356C19.7369 7.24238 19.7904 7.11669 19.7929 6.98488V4.98488C19.7929 4.85227 19.7403 4.7251 19.6465 4.63133C19.5527 4.53756 19.4255 4.48488 19.2929 4.48488C19.1603 4.48488 19.0331 4.53756 18.9394 4.63133C18.8456 4.7251 18.7929 4.85227 18.7929 4.98488ZM1.79293 6.98488V4.98488C1.79293 4.85227 1.74025 4.7251 1.64648 4.63133C1.55271 4.53756 1.42554 4.48488 1.29293 4.48488C1.16032 4.48488 1.03314 4.53756 0.939375 4.63133C0.845607 4.7251 0.792929 4.85227 0.792929 4.98488V6.98488C0.792929 7.11749 0.845607 7.24467 0.939375 7.33844C1.03314 7.4322 1.16032 7.48488 1.29293 7.48488C1.42474 7.48232 1.55043 7.42882 1.64365 7.3356C1.73687 7.24238 1.79037 7.11669 1.79293 6.98488ZM3.28293 12.9849H5.11293L6.03293 11.9849H3.84293C3.77595 11.9836 3.70988 11.9691 3.64851 11.9423C3.58713 11.9154 3.53164 11.8768 3.4852 11.8285C3.43877 11.7802 3.40231 11.7232 3.3779 11.6608C3.35348 11.5984 3.3416 11.5319 3.34293 11.4649L3.60293 3.98488H13.3829L14.2829 2.98488H3.90293C4.07829 2.68114 4.33044 2.42886 4.63409 2.25334C4.93774 2.07782 5.2822 1.98524 5.63293 1.98488H15.1929L15.9729 1.14488C15.652 1.02939 15.314 0.968546 14.9729 0.964882H5.63293C4.88192 0.961835 4.15709 1.24058 3.60163 1.74604C3.04618 2.2515 2.70051 2.94692 2.63293 3.69488C2.63293 3.76488 2.42293 8.50488 2.42293 8.50488C2.34293 10.3349 2.28293 11.4849 2.28293 11.9849V16.0549L3.28293 14.9849V12.9849ZM11.7829 16.4849C11.9155 16.4849 12.0427 16.4322 12.1365 16.3384C12.2303 16.2447 12.2829 16.1175 12.2829 15.9849C12.2829 15.8523 12.2303 15.7251 12.1365 15.6313C12.0427 15.5376 11.9155 15.4849 11.7829 15.4849H8.78293C8.65032 15.4849 8.52314 15.5376 8.42937 15.6313C8.33561 15.7251 8.28293 15.8523 8.28293 15.9849C8.28293 16.1175 8.33561 16.2447 8.42937 16.3384C8.52314 16.4322 8.65032 16.4849 8.78293 16.4849H11.7829ZM0.852929 21.2949C0.806633 21.3476 0.749763 21.39 0.686018 21.4193C0.622272 21.4485 0.553076 21.4641 0.482929 21.4649C0.35613 21.4621 0.234912 21.4122 0.142929 21.3249C0.0513151 21.2314 0 21.1058 0 20.9749C0 20.844 0.0513151 20.7183 0.142929 20.6249L18.9229 0.144882C19.0164 0.0532683 19.1421 0.00195313 19.2729 0.00195312C19.4038 0.00195312 19.5295 0.0532683 19.6229 0.144882C19.6698 0.191363 19.707 0.246664 19.7324 0.307593C19.7578 0.368523 19.7708 0.433876 19.7708 0.499882C19.7708 0.565888 19.7578 0.63124 19.7324 0.69217C19.707 0.7531 19.6698 0.8084 19.6229 0.854882L0.852929 21.2949Z" fill="#D84E55"/>
</svg>
