<svg width="20" height="21" viewBox="0 0 20 21" fill="none" xmlns="http://www.w3.org/2000/svg">
<path d="M9.3281 19.4119L8.64804 19.7573C7.52222 20.3291 6.16282 19.8702 5.57549 18.72L5.22071 18.0253C4.99953 17.5922 4.59836 17.2893 4.13355 17.2046L3.38797 17.0687C2.15369 16.8438 1.31353 15.6423 1.48903 14.3532L1.59504 13.5744C1.66113 13.089 1.5079 12.599 1.17978 12.2466L0.653469 11.6813C-0.217823 10.7455 -0.217823 9.26044 0.653469 8.32467L1.17978 7.75941C1.5079 7.40701 1.66113 6.91702 1.59504 6.43155L1.48903 5.65282C1.31353 4.36366 2.15369 3.16219 3.38797 2.93724L4.13355 2.80136C4.59836 2.71664 4.99953 2.41381 5.22071 1.98069L5.57549 1.28594C6.16282 0.135815 7.52222 -0.323104 8.64804 0.248685L9.3281 0.594081C9.75206 0.809407 10.2479 0.809407 10.6719 0.594081L11.352 0.248685C12.4778 -0.323104 13.8372 0.135815 14.4245 1.28594L14.7793 1.98069C15.0005 2.41381 15.4016 2.71664 15.8665 2.80136L16.612 2.93724C17.8463 3.16219 18.6865 4.36366 18.511 5.65282L18.405 6.43155C18.3389 6.91702 18.4921 7.40701 18.8202 7.75941L19.3465 8.32467C20.2178 9.26044 20.2178 10.7455 19.3465 11.6813L18.8202 12.2466C18.4921 12.599 18.3389 13.089 18.405 13.5744L18.511 14.3532C18.6865 15.6423 17.8463 16.8438 16.612 17.0687L15.8665 17.2046C15.4016 17.2893 15.0005 17.5922 14.7793 18.0253L14.4245 18.72C13.8372 19.8702 12.4778 20.3291 11.352 19.7573L10.6719 19.4119C10.2479 19.1966 9.75206 19.1966 9.3281 19.4119ZM11.1247 18.5203L11.8048 18.8657C12.4344 19.1855 13.1951 18.9287 13.5339 18.2652L13.8887 17.5705C14.2504 16.8622 14.9131 16.3619 15.6872 16.2208L16.4327 16.0849C17.1332 15.9573 17.6245 15.2547 17.5201 14.4881L17.4141 13.7093C17.3078 12.9282 17.5548 12.1381 18.0883 11.5651L18.6147 10.9999C19.1284 10.4481 19.1284 9.55793 18.6147 9.00612L18.0883 8.44085C17.5548 7.86784 17.3078 7.07782 17.4141 6.29665L17.5201 5.51792C17.6245 4.75125 17.1332 4.0487 16.4327 3.92104L15.6872 3.78515C14.9131 3.64408 14.2504 3.14381 13.8887 2.43548L13.5339 1.74074C13.1951 1.07729 12.4344 0.820495 11.8048 1.14028L11.1247 1.48568C10.4162 1.84554 9.58382 1.84554 8.87527 1.48568L8.1952 1.14028C7.56557 0.820495 6.80488 1.07729 6.46609 1.74074L6.1113 2.43548C5.74959 3.14381 5.08687 3.64408 4.31285 3.78515L3.56727 3.92104C2.8668 4.0487 2.37552 4.75125 2.47989 5.51792L2.5859 6.29665C2.69225 7.07782 2.44519 7.86784 1.91165 8.44085L1.38534 9.00612C0.871553 9.55793 0.871553 10.4481 1.38534 10.9999L1.91165 11.5651C2.44519 12.1381 2.69225 12.9282 2.5859 13.7093L2.47989 14.4881C2.37552 15.2547 2.8668 15.9573 3.56727 16.0849L4.31285 16.2208C5.08687 16.3619 5.74959 16.8622 6.1113 17.5705L6.46609 18.2652C6.80488 18.9287 7.56557 19.1855 8.1952 18.8657L8.87527 18.5203C9.58382 18.1604 10.4162 18.1604 11.1247 18.5203Z" fill="#D84E55"/>
<path d="M7.412 10.139C6.796 10.139 6.292 9.93099 5.9 9.51499C5.516 9.09099 5.324 8.52699 5.324 7.82299C5.324 7.11899 5.516 6.55899 5.9 6.14299C6.292 5.71899 6.796 5.50699 7.412 5.50699C8.028 5.50699 8.528 5.71899 8.912 6.14299C9.296 6.55899 9.488 7.11899 9.488 7.82299C9.488 8.52699 9.296 9.09099 8.912 9.51499C8.528 9.93099 8.028 10.139 7.412 10.139ZM12.416 5.60299H13.844L8.108 14.003H6.68L12.416 5.60299ZM7.412 9.15499C7.684 9.15499 7.896 9.04299 8.048 8.81899C8.208 8.59499 8.288 8.26299 8.288 7.82299C8.288 7.38299 8.208 7.05099 8.048 6.82699C7.896 6.60299 7.684 6.49099 7.412 6.49099C7.148 6.49099 6.936 6.60699 6.776 6.83899C6.616 7.06299 6.536 7.39099 6.536 7.82299C6.536 8.25499 6.616 8.58699 6.776 8.81899C6.936 9.04299 7.148 9.15499 7.412 9.15499ZM13.112 14.099C12.712 14.099 12.352 14.007 12.032 13.823C11.72 13.631 11.476 13.359 11.3 13.007C11.124 12.655 11.036 12.247 11.036 11.783C11.036 11.319 11.124 10.911 11.3 10.559C11.476 10.207 11.72 9.93899 12.032 9.75499C12.352 9.56299 12.712 9.46699 13.112 9.46699C13.728 9.46699 14.228 9.67899 14.612 10.103C15.004 10.519 15.2 11.079 15.2 11.783C15.2 12.487 15.004 13.051 14.612 13.475C14.228 13.891 13.728 14.099 13.112 14.099ZM13.112 13.115C13.384 13.115 13.596 13.003 13.748 12.779C13.908 12.547 13.988 12.215 13.988 11.783C13.988 11.351 13.908 11.023 13.748 10.799C13.596 10.567 13.384 10.451 13.112 10.451C12.848 10.451 12.636 10.563 12.476 10.787C12.316 11.011 12.236 11.343 12.236 11.783C12.236 12.223 12.316 12.555 12.476 12.779C12.636 13.003 12.848 13.115 13.112 13.115Z" fill="#D84E55"/>
</svg>
