<svg width="18" height="21" viewBox="0 0 18 21" fill="none" xmlns="http://www.w3.org/2000/svg">
<path d="M8.90373 0.204028C9.7304 1.34216 10.8453 2.23958 12.1337 2.80403C13.3462 3.34899 14.6824 3.5596 16.0037 3.41403C16.1235 3.39828 16.2449 3.42734 16.3446 3.49563C16.4442 3.56392 16.5152 3.66663 16.5437 3.78403C16.8454 4.97397 16.9999 6.19644 17.0037 7.42403C17.0338 9.54022 16.6182 11.6391 15.7837 13.584C14.8834 15.6534 13.5139 17.485 11.7837 18.934C10.8388 19.7384 9.78922 20.4112 8.66373 20.934C8.599 20.9682 8.52692 20.986 8.45373 20.986C8.38054 20.986 8.30846 20.9682 8.24373 20.934C7.11824 20.4112 6.06871 19.7384 5.12373 18.934C3.41158 17.482 2.06239 15.6499 1.18373 13.584C0.358674 11.6374 -0.0435334 9.53775 0.00373155 7.42403C0.0206069 6.19479 0.188533 4.97229 0.503732 3.78403C0.532289 3.66663 0.603214 3.56392 0.702884 3.49563C0.802554 3.42734 0.923941 3.39828 1.04373 3.41403C2.3551 3.55179 3.67961 3.34138 4.88373 2.80403C6.1693 2.23932 7.28087 1.34178 8.10373 0.204028C8.15031 0.14193 8.2107 0.0915285 8.28012 0.0568147C8.34955 0.0221008 8.42611 0.00402832 8.50373 0.00402832C8.58135 0.00402832 8.65791 0.0221008 8.72734 0.0568147C8.79677 0.0915285 8.85716 0.14193 8.90373 0.204028ZM8.50373 1.31403C7.63149 2.35339 6.52899 3.17513 5.28373 3.71403C4.045 4.27171 2.68996 4.52213 1.33373 4.44403C1.12046 5.42995 1.00987 6.43532 1.00373 7.44403C0.97621 9.42267 1.36459 11.385 2.14373 13.204C2.96531 15.1339 4.22529 16.8459 5.82373 18.204C6.63835 18.8971 7.53915 19.4819 8.50373 19.944C9.47052 19.4695 10.3714 18.8711 11.1837 18.164C12.7822 16.8059 14.0422 15.0939 14.8637 13.164C15.6388 11.3543 16.0271 9.40259 16.0037 7.43403C15.9976 6.42532 15.887 5.41995 15.6737 4.43403C14.3009 4.51949 12.9279 4.26892 11.6737 3.70403C10.4475 3.16138 9.36283 2.34357 8.50373 1.31403ZM5.99373 6.50403H11.4437L11.0637 7.08403C11.0155 7.1635 10.9585 7.2373 10.8937 7.30403H9.44373C9.64768 7.55348 9.78834 7.84852 9.85373 8.16403H11.4037L10.8737 8.94403H9.87373C9.81925 9.30209 9.68605 9.64362 9.48373 9.94403C9.27544 10.2229 9.01368 10.4575 8.71373 10.634L8.59373 10.694C8.12169 10.9323 7.60238 11.0621 7.07373 11.074C7.07373 11.074 8.17373 12.414 10.3537 14.974H8.93373L5.75373 11.264V10.504C5.9769 10.5161 6.20056 10.5161 6.42373 10.504C7.61373 10.504 8.35373 10.114 8.64373 9.34403C8.6918 9.23019 8.71564 9.10759 8.71373 8.98403H5.50373L6.03373 8.23403H8.60373C8.51008 8.05841 8.38218 7.90333 8.22761 7.77795C8.07303 7.65257 7.8949 7.55943 7.70373 7.50403C7.44346 7.41114 7.17001 7.3605 6.89373 7.35403H5.50373L5.99373 6.61403V6.50403Z" fill="#D84E55"/>
</svg>
