<svg width="20" height="21" viewBox="0 0 20 21" fill="none" xmlns="http://www.w3.org/2000/svg">
<path d="M10 0.00500488C15.523 0.00500488 20 4.48301 20 10.005C20 15.527 15.523 20.005 10 20.005C4.477 20.005 0 15.527 0 10.005C0 4.48301 4.477 0.00500488 10 0.00500488ZM10 1.672C5.405 1.672 1.667 5.41001 1.667 10.005C1.667 14.6 5.405 18.338 10 18.338C14.595 18.338 18.333 14.6 18.333 10.005C18.333 5.41001 14.595 1.672 10 1.672ZM10 13.505C10.5523 13.505 11 13.9527 11 14.505C11 15.0573 10.5523 15.505 10 15.505C9.44772 15.505 9 15.0573 9 14.505C9 13.9527 9.44772 13.505 10 13.505ZM10 4.755C11.5188 4.755 12.75 5.98622 12.75 7.505C12.75 8.51576 12.4525 9.07905 11.6989 9.86359L11.5303 10.0353C10.9084 10.6572 10.75 10.9213 10.75 11.505C10.75 11.9192 10.4142 12.255 10 12.255C9.58579 12.255 9.25 11.9192 9.25 11.505C9.25 10.4943 9.54754 9.93096 10.3011 9.14642L10.4697 8.97468C11.0916 8.35278 11.25 8.08872 11.25 7.505C11.25 6.81465 10.6904 6.255 10 6.255C9.35279 6.255 8.82047 6.74688 8.75645 7.3772L8.75 7.505C8.75 7.91922 8.41421 8.255 8 8.255C7.58579 8.255 7.25 7.91922 7.25 7.505C7.25 5.98622 8.48122 4.755 10 4.755Z" fill="#D84E55"/>
</svg>
