<svg width="12" height="20" viewBox="0 0 12 20" fill="none" xmlns="http://www.w3.org/2000/svg">
<path d="M4.50003 2.61124e-05C4.46351 0.439052 4.59988 0.874981 4.88006 1.21494C5.16025 1.5549 5.56211 1.77201 6.00003 1.82003C6.41107 1.78 6.79216 1.58729 7.06803 1.27995C7.34389 0.972609 7.49447 0.572991 7.49003 0.160026V2.61124e-05H11C11.2457 -0.00174846 11.4834 0.0869805 11.6679 0.249287C11.8523 0.411593 11.9705 0.636116 12 0.880026V19C12.0018 19.2457 11.9131 19.4834 11.7508 19.6679C11.5885 19.8523 11.3639 19.9706 11.12 20H7.50003C7.53654 19.561 7.40018 19.1251 7.11999 18.7851C6.8398 18.4452 6.43794 18.228 6.00003 18.18C5.58898 18.2201 5.20789 18.4128 4.93203 18.7201C4.65616 19.0274 4.50558 19.4271 4.51003 19.84V20H1.00003C0.754348 20.0018 0.516614 19.9131 0.332175 19.7508C0.147736 19.5885 0.0295018 19.3639 2.61124e-05 19.12V1.00003C-0.00174846 0.754348 0.0869805 0.516614 0.249287 0.332175C0.411593 0.147737 0.636116 0.0295018 0.880026 2.61124e-05H4.50003ZM3.66003 1.00003H1.00003V19H3.66003C3.80631 18.4875 4.11194 18.0349 4.53264 17.7077C4.95334 17.3805 5.46728 17.1957 6.00003 17.18C6.50179 17.1944 6.98761 17.3594 7.39427 17.6537C7.80092 17.948 8.10956 18.3579 8.28003 18.83L8.34003 19H11V1.00003H8.34003C8.19374 1.51253 7.88812 1.96517 7.46741 2.29238C7.04671 2.61959 6.53277 2.8044 6.00003 2.82003C5.49826 2.80568 5.01244 2.64063 4.60579 2.34634C4.19913 2.05205 3.89049 1.64216 3.72003 1.17003L3.66003 1.00003ZM8.00003 13.5C8.06569 13.4941 8.13187 13.5012 8.19479 13.5209C8.25772 13.5405 8.31615 13.5724 8.36676 13.6147C8.41737 13.6569 8.45916 13.7087 8.48975 13.7671C8.52033 13.8255 8.53912 13.8894 8.54503 13.955C8.55094 14.0207 8.54385 14.0869 8.52419 14.1498C8.50452 14.2127 8.47265 14.2712 8.4304 14.3218C8.38815 14.3724 8.33634 14.4142 8.27794 14.4447C8.21954 14.4753 8.15569 14.4941 8.09003 14.5H4.00003C3.93437 14.5059 3.86818 14.4989 3.80526 14.4792C3.74234 14.4595 3.6839 14.4277 3.63329 14.3854C3.58268 14.3431 3.54089 14.2913 3.51031 14.2329C3.47972 14.1745 3.46094 14.1107 3.45503 14.045C3.44912 13.9794 3.4562 13.9132 3.47587 13.8503C3.49553 13.7873 3.5274 13.7289 3.56965 13.6783C3.6119 13.6277 3.66371 13.5859 3.72211 13.5553C3.78051 13.5247 3.84437 13.5059 3.91003 13.5H8.00003ZM9.00003 10.14V11H8.14003V10.14H9.00003ZM3.86003 10.14V11H3.00003V10.14H3.86003ZM6.43003 8.43003V10.14H7.29003V11H4.71003V10.14H5.57003V8.43003H6.43003ZM4.71003 9.29003V10.14H3.86003V9.29003H4.71003ZM9.00003 7.57003V9.29003H8.14003V10.14H7.29003V8.43003H8.14003V7.57003H9.00003ZM3.86003 8.43003V9.29003H3.00003V8.43003H3.86003ZM5.57003 7.57003V8.43003H4.71003V7.57003H5.57003ZM7.29003 7.57003V8.43003H6.43003V7.57003H7.29003ZM4.71003 6.71003V7.57003H3.00003V6.71003H4.71003ZM7.29003 5.86003V6.71003H6.43003V7.57003H5.57003V6.71003H6.43003V5.86003H7.29003ZM8.14003 6.71003V7.57003H7.29003V6.71003H8.14003ZM6.43003 5.00003V5.86003H5.57003V6.71003H4.71003V5.00003H6.43003ZM3.86003 5.00003V5.86003H3.00003V5.00003H3.86003ZM9.00003 5.00003V5.86003H7.29003V5.00003H9.00003Z" fill="#D84E55"/>
</svg>
