<svg width="20" height="22" viewBox="0 0 20 22" fill="none" xmlns="http://www.w3.org/2000/svg">
<path d="M9.48554 1.98888C9.61814 1.98888 9.74532 2.04155 9.83909 2.13532C9.93286 2.22909 9.98554 2.35627 9.98554 2.48888C9.98554 2.62148 9.93286 2.74866 9.83909 2.84243C9.74532 2.9362 9.61814 2.98888 9.48554 2.98888C7.48281 2.98626 5.54425 3.69505 4.01554 4.98888V14.2289C4.01554 14.2932 4.02821 14.3569 4.05284 14.4164C4.07746 14.4758 4.11355 14.5299 4.15905 14.5754C4.20456 14.6209 4.25857 14.657 4.31802 14.6816C4.37747 14.7062 4.44119 14.7189 4.50554 14.7189H7.50554C7.56915 14.233 7.80303 13.7855 8.16559 13.4559C8.52814 13.1263 8.99586 12.936 9.48554 12.9189C9.96933 12.9448 10.4289 13.1389 10.7849 13.4675C11.1409 13.7961 11.371 14.2387 11.4355 14.7189H14.4355C14.5007 14.7202 14.5655 14.7085 14.6261 14.6845C14.6867 14.6605 14.7419 14.6246 14.7885 14.5789C14.8351 14.5333 14.8721 14.4788 14.8973 14.4187C14.9226 14.3586 14.9356 14.2941 14.9355 14.2289V4.97888C14.5216 4.63176 14.0764 4.32378 13.6055 4.05888C13.4905 3.99358 13.4054 3.88616 13.3681 3.7593C13.3308 3.63243 13.3442 3.49603 13.4055 3.37888C13.4707 3.26366 13.5788 3.17896 13.7063 3.14334C13.8337 3.10773 13.9701 3.1241 14.0855 3.18888C14.6573 3.50406 15.1937 3.87953 15.6855 4.30888L15.8255 4.41888C17.2638 5.6964 18.2808 7.38007 18.7423 9.2476C19.2038 11.1151 19.0881 13.0787 18.4104 14.8791C17.7327 16.6795 16.525 18.2321 14.9466 19.3318C13.3683 20.4315 11.4935 21.0267 9.56981 21.0388C7.64614 21.0509 5.76403 20.4794 4.17196 19.3996C2.57988 18.3198 1.35271 16.7825 0.652453 14.9908C-0.0478052 13.1991 -0.18822 11.2371 0.249744 9.36391C0.687709 7.49072 1.68346 5.79439 3.10554 4.49888C3.1526 4.42991 3.214 4.37193 3.28554 4.32888C5.00434 2.82997 7.20499 1.99941 9.48554 1.98888ZM15.9455 5.98888V14.2489C15.938 14.6347 15.782 15.0027 15.5101 15.2764C15.2382 15.5502 14.8713 15.7087 14.4855 15.7189H10.9655C10.8329 15.7189 10.7058 15.6662 10.612 15.5724C10.5182 15.4787 10.4655 15.3515 10.4655 15.2189C10.4999 14.9148 10.4149 14.6093 10.2283 14.3667C10.0417 14.1242 9.76825 13.9636 9.46554 13.9189C9.16282 13.9636 8.88933 14.1242 8.70276 14.3667C8.51619 14.6093 8.43113 14.9148 8.46554 15.2189C8.46554 15.3515 8.41286 15.4787 8.31909 15.5724C8.22532 15.6662 8.09814 15.7189 7.96554 15.7189H4.48554C4.09036 15.7189 3.71138 15.5619 3.43195 15.2825C3.15252 15.003 2.99554 14.624 2.99554 14.2289V5.97888C1.9411 7.21416 1.26264 8.72568 1.04045 10.3345C0.818266 11.9434 1.06166 13.5822 1.74182 15.0571C2.42198 16.5319 3.51044 17.781 4.87836 18.6565C6.24629 19.5321 7.83641 19.9974 9.46054 19.9974C11.0847 19.9974 12.6748 19.5321 14.0427 18.6565C15.4106 17.781 16.4991 16.5319 17.1793 15.0571C17.8594 13.5822 18.1028 11.9434 17.8806 10.3345C17.6584 8.72568 16.98 7.21416 15.9255 5.97888L15.9455 5.98888ZM8.98554 0.148876L10.9855 2.14888C11.0334 2.19377 11.0715 2.24798 11.0975 2.30818C11.1236 2.36838 11.1371 2.43328 11.1371 2.49888C11.1371 2.56447 11.1236 2.62937 11.0975 2.68957C11.0715 2.74977 11.0334 2.80399 10.9855 2.84888L8.98554 4.84888C8.89207 4.94049 8.76641 4.9918 8.63554 4.9918C8.50466 4.9918 8.379 4.94049 8.28554 4.84888C8.23867 4.80239 8.20148 4.74709 8.17609 4.68616C8.15071 4.62523 8.13764 4.55988 8.13764 4.49388C8.13764 4.42787 8.15071 4.36252 8.17609 4.30159C8.20148 4.24066 8.23867 4.18536 8.28554 4.13888L9.91554 2.49888L8.27554 0.848876C8.18392 0.755411 8.13261 0.629752 8.13261 0.498876C8.13261 0.367999 8.18392 0.24234 8.27554 0.148876C8.32202 0.102012 8.37732 0.0648144 8.43825 0.03943C8.49918 0.0140457 8.56453 0.000976562 8.63054 0.000976562C8.69654 0.000976562 8.7619 0.0140457 8.82282 0.03943C8.88375 0.0648144 8.93906 0.102012 8.98554 0.148876Z" fill="#D84E55"/>
</svg>
